<mxfile host="app.diagrams.net" modified="2020-04-29T23:54:57.597Z" agent="5.0 (Linux; Android 5.1.1; SM-P605) AppleWebKit/537.36 (KHTML, like Gecko) Chrome/81.0.4044.117 Safari/537.36" etag="Tvvu1V0_xVPyn0E53Qlr" version="13.0.3" type="github">
  <diagram id="8M4_iIAZsMXoEYjy7fk6" name="Page-1">
    <mxGraphModel dx="660" dy="420" grid="1" gridSize="10" guides="1" tooltips="1" connect="1" arrows="1" fold="1" page="1" pageScale="1" pageWidth="827" pageHeight="1169" math="0" shadow="0">
      <root>
        <mxCell id="0" />
        <mxCell id="1" parent="0" />
        <mxCell id="LZ7I5PYSq04TtpPRyl3J-1" value="Text shape" style="rounded=0;whiteSpace=wrap;html=1;" vertex="1" parent="1">
          <mxGeometry x="210" y="740" width="120" height="60" as="geometry" />
        </mxCell>
      </root>
    </mxGraphModel>
  </diagram>
</mxfile>
